<svg width="38" height="38" viewBox="0 0 38 38" fill="none" xmlns="http://www.w3.org/2000/svg">
<path d="M11.0222 16.4506C11.0222 16.2049 11.2219 16.0053 11.4675 16.0053H25.5424C25.788 16.0053 25.9877 16.2049 25.9877 16.4506C25.9877 16.6962 25.788 16.8959 25.5424 16.8959H11.4675C11.2211 16.8959 11.0222 16.697 11.0222 16.4506ZM23.1644 18.7766H11.4675C11.2219 18.7766 11.0222 18.9762 11.0222 19.2219C11.0222 19.4676 11.2219 19.6672 11.4675 19.6672H23.1644C23.4101 19.6672 23.6097 19.4676 23.6097 19.2219C23.6097 18.9762 23.4101 18.7766 23.1644 18.7766ZM21.5034 21.5472H11.4675C11.2219 21.5472 11.0222 21.7468 11.0222 21.9925C11.0222 22.2382 11.2219 22.4378 11.4675 22.4378H21.5034C21.7491 22.4378 21.9487 22.2382 21.9487 21.9925C21.9487 21.7468 21.7491 21.5472 21.5034 21.5472ZM19.8876 24.3178H11.4675C11.2219 24.3178 11.0222 24.5174 11.0222 24.7631C11.0222 25.0087 11.2219 25.2084 11.4675 25.2084H19.8884C20.1341 25.2084 20.3337 25.0087 20.3337 24.7631C20.3337 24.5174 20.1341 24.3178 19.8876 24.3178ZM18.3187 26.7002H11.4668C11.2211 26.7002 11.0215 26.8998 11.0215 27.1455C11.0215 27.3912 11.2211 27.5908 11.4668 27.5908H18.3187C18.5643 27.5908 18.764 27.3912 18.764 27.1455C18.764 26.8998 18.5651 26.7002 18.3187 26.7002ZM17.0087 29.0834H11.4675C11.2219 29.0834 11.0222 29.283 11.0222 29.5287C11.0222 29.7743 11.2219 29.974 11.4675 29.974H17.0087C17.2544 29.974 17.454 29.7743 17.454 29.5287C17.454 29.283 17.2544 29.0834 17.0087 29.0834ZM15.2735 31.4658H11.4675C11.2219 31.4658 11.0222 31.6654 11.0222 31.9111C11.0222 32.1568 11.2219 32.3564 11.4675 32.3564H15.2735C15.5191 32.3564 15.7188 32.1568 15.7188 31.9111C15.7188 31.6654 15.5191 31.4658 15.2735 31.4658ZM35.93 36.0377C35.6183 36.5772 35.0825 36.8867 34.459 36.8867H17.4347C16.8113 36.8867 16.2754 36.5772 15.9644 36.0377C15.8984 35.9234 15.8472 35.8054 15.8093 35.6859H6.92683C6.50823 35.6859 6.10597 35.5738 5.75417 35.3645L5.45878 35.9204C5.38159 36.0659 5.23019 36.1564 5.06542 36.1564C4.90065 36.1564 4.74925 36.0659 4.67206 35.9204L3.26636 33.2789L1.89183 30.6405C1.89183 30.6397 1.89108 30.6397 1.89108 30.639L1.88812 30.6338C1.8562 30.5722 1.83765 30.5024 1.83765 30.4282V18.9518C1.83765 17.3234 3.05038 15.9734 4.61937 15.7559V3.42074C4.61937 2.14789 5.65472 1.11328 6.92683 1.11328H22.3294C22.4475 1.11328 22.561 1.16004 22.6441 1.24391L30.0912 8.69102C30.1744 8.77488 30.2219 8.88769 30.2219 9.0057V24.4521L35.9308 34.3395C36.2417 34.8791 36.2417 35.4981 35.93 36.0377ZM21.8841 9.0057V6.9773H9.39757V12.5148H24.9924V9.45102H22.3287C22.083 9.45102 21.8841 9.25211 21.8841 9.0057ZM28.7011 8.56039L22.774 2.63328V8.56039H28.7011ZM2.72827 18.9518V19.4475H7.40183V18.9518C7.40183 17.6633 6.35386 16.6154 5.06542 16.6154C3.77698 16.6154 2.72827 17.6633 2.72827 18.9518ZM2.72827 29.9821H7.40183V20.3382H2.72827V29.9821ZM5.06468 34.7626L6.07702 32.8596L7.11237 30.872H3.01698L4.05456 32.8626L5.06468 34.7626ZM24.4766 19.596C24.7883 19.0564 25.3242 18.7469 25.9469 18.7469C26.5703 18.7469 27.1062 19.0564 27.4171 19.596L29.3305 22.9098V9.45102H25.883V12.9601C25.883 13.2057 25.6834 13.4054 25.4377 13.4054H8.95226C8.70659 13.4054 8.50694 13.2057 8.50694 12.9601V6.53199C8.50694 6.28633 8.70659 6.08668 8.95226 6.08668H21.8834V2.00391H6.92683C6.14605 2.00391 5.50999 2.63922 5.50999 3.42074V15.7559C7.07972 15.9734 8.29171 17.3234 8.29171 18.9518V30.4275C8.29171 30.5017 8.27315 30.5714 8.24124 30.633L8.23827 30.6382C8.23827 30.639 8.23753 30.639 8.23753 30.6397L6.86448 33.2745L6.17276 34.5748C6.3969 34.7173 6.65593 34.7945 6.92608 34.7945H15.7789C15.8175 34.6386 15.8784 34.4857 15.963 34.3388L24.4766 19.596ZM35.1589 34.7848L26.6467 20.0413C26.4961 19.7808 26.2482 19.6375 25.9476 19.6375C25.647 19.6375 25.3984 19.7808 25.2485 20.0413L16.7356 34.7848C16.5849 35.0453 16.5849 35.3318 16.7356 35.5923C16.8862 35.8529 17.1341 35.9961 17.4347 35.9961H34.4598C34.7603 35.9961 35.009 35.8529 35.1589 35.5923C35.3096 35.3318 35.3088 35.0453 35.1589 34.7848ZM27.0631 24.2005C27.3385 24.4914 27.4787 24.8662 27.4572 25.2552L27.1885 30.1543C27.1529 30.8104 26.6304 31.2862 25.9469 31.2862C25.2633 31.2862 24.7408 30.8104 24.7052 30.1543L24.4365 25.2552C24.415 24.8662 24.5553 24.4922 24.8306 24.2005C25.1201 23.8947 25.5268 23.7196 25.9469 23.7196C26.3669 23.7196 26.7737 23.8947 27.0631 24.2005ZM26.4167 24.8128C26.295 24.6837 26.1235 24.6102 25.9476 24.6102C25.7717 24.6102 25.6003 24.6844 25.4785 24.8128C25.3732 24.9241 25.319 25.0637 25.3271 25.2062L25.5958 30.1054C25.6107 30.3748 25.8697 30.3955 25.9484 30.3955C26.027 30.3955 26.286 30.3748 26.3009 30.1054L26.5696 25.2062C26.5755 25.0637 26.5221 24.9241 26.4167 24.8128ZM27.3481 33.7792C27.3481 34.5518 26.7195 35.1804 25.9469 35.1804C25.1742 35.1804 24.5456 34.5518 24.5456 33.7792C24.5456 33.0066 25.1742 32.3779 25.9469 32.3779C26.7195 32.3779 27.3481 33.0066 27.3481 33.7792ZM26.4575 33.7792C26.4575 33.4979 26.2282 33.2686 25.9469 33.2686C25.6656 33.2686 25.4362 33.4979 25.4362 33.7792C25.4362 34.0605 25.6656 34.2898 25.9469 34.2898C26.2282 34.2898 26.4575 34.0612 26.4575 33.7792Z" fill="#0090D8"/>
</svg>
