<svg width="39" height="35" viewBox="0 0 39 35" fill="none" xmlns="http://www.w3.org/2000/svg">
<path d="M36.2236 19.355H34.7691V15.8047C34.7691 15.497 34.5198 15.2477 34.2121 15.2477C33.9044 15.2477 33.6551 15.497 33.6551 15.8047V19.355H22.2186V11.5121C22.2186 11.2362 22.443 11.0119 22.7189 11.0119H25.2298V13.9374C25.2298 14.3103 25.4175 14.6525 25.732 14.8529C26.0464 15.0532 26.436 15.0791 26.7738 14.9216L27.9368 14.3801L29.0998 14.9216C29.2466 14.9899 29.403 15.0238 29.5588 15.0238C29.7618 15.0238 29.9638 14.9663 30.1417 14.8529C30.4561 14.6525 30.6439 14.3102 30.6439 13.9374V11.0119H33.1548C33.4307 11.0119 33.6551 11.2362 33.6551 11.5121V13.377C33.6551 13.6847 33.9044 13.934 34.2121 13.934C34.5198 13.934 34.7691 13.6847 34.7691 13.377V11.5121C34.7691 10.6219 34.0449 9.89781 33.1548 9.89781H30.0868H25.7869H22.7189C22.5443 9.89781 22.3762 9.92603 22.2186 9.97757V5.81055C22.2186 4.4944 21.1479 3.42372 19.8318 3.42372H15.8922V3.15419C15.8922 1.415 14.4772 0 12.738 0C10.9987 0 9.58386 1.415 9.58386 3.15419V3.42372H5.64426C4.32811 3.42372 3.25743 4.4944 3.25743 5.81055V10.3864C3.25743 10.694 3.50683 10.9434 3.81446 10.9434C4.12209 10.9434 4.37149 10.694 4.37149 10.3864V8.03934H6.18896C7.18307 8.03934 7.9918 7.23053 7.9918 6.23649V4.53778H17.4839V6.23649C17.4839 7.2306 18.2927 8.03934 19.2868 8.03934H21.1046V19.355H17.4016V9.23249C17.4016 8.92479 17.1522 8.67546 16.8445 8.67546C16.5369 8.67546 16.2875 8.92479 16.2875 9.23249V19.355H13.2951V9.23249C13.2951 8.92479 13.0457 8.67546 12.7381 8.67546C12.4304 8.67546 12.181 8.92479 12.181 9.23249V19.355H9.1886V9.23249C9.1886 8.92479 8.9392 8.67546 8.63157 8.67546C8.32394 8.67546 8.07454 8.92479 8.07454 9.23249V19.355H4.37141V12.814C4.37141 12.5063 4.12201 12.257 3.81438 12.257C3.50676 12.257 3.25736 12.5063 3.25736 12.814V19.355H1.80284C0.808731 19.355 0 20.1638 0 21.158V30.3635C0 32.7314 1.9265 34.658 4.29447 34.658H14.4779C14.7855 34.658 15.0349 34.4086 15.0349 34.1009C15.0349 33.7932 14.7855 33.5439 14.4779 33.5439H12.1703V20.4691H25.8562V33.5439H16.9056C16.598 33.5439 16.3486 33.7932 16.3486 34.1009C16.3486 34.4086 16.598 34.658 16.9056 34.658H33.732C36.1 34.658 38.0265 32.7314 38.0265 30.3635V21.158C38.0265 20.1638 37.2177 19.355 36.2236 19.355ZM29.3351 14.4166L29.5702 13.9117L29.5701 13.9116C29.5702 13.9117 29.5702 13.9117 29.5703 13.9117L29.3351 14.4166ZM29.5298 11.0119V13.8928L28.1721 13.2606C28.0229 13.1911 27.8509 13.1911 27.7018 13.2606L26.344 13.8929V11.0119H29.5298ZM10.6979 3.15419C10.6979 2.02929 11.6131 1.11406 12.7381 1.11406C13.863 1.11406 14.7781 2.02929 14.7781 3.15419V3.42372H10.6979V3.15419ZM6.87774 6.23649C6.87774 6.61631 6.56878 6.92528 6.18896 6.92528H4.37141V5.81048C4.37141 5.1087 4.9424 4.5377 5.64419 4.5377H6.87767L6.87774 6.23649ZM19.2868 6.92535C18.907 6.92535 18.598 6.61639 18.598 6.23657V4.53778H19.8319C20.5336 4.53778 21.1046 5.10877 21.1046 5.81055V6.92535H19.2868ZM11.0562 33.5439H4.29447C2.54079 33.5439 1.11406 32.1172 1.11406 30.3635V21.158C1.11406 20.7781 1.42302 20.4692 1.80284 20.4692H11.0562V33.5439ZM36.9124 30.3635C36.9124 32.1172 35.4857 33.5439 33.732 33.5439H26.9703V20.4691H36.2236C36.6035 20.4691 36.9124 20.7781 36.9124 21.1579V30.3635Z" fill="#0090D8"/>
<path d="M19.0519 32.0325C19.3623 32.0111 19.5966 31.742 19.5751 31.4316C19.5536 31.1212 19.2846 30.8869 18.9742 30.9084C18.6638 30.9299 18.4295 31.1989 18.451 31.5093C18.4724 31.8198 18.7415 32.054 19.0519 32.0325Z" fill="#0090D8"/>
<path d="M21.5558 25.0064C21.4869 23.6813 20.3931 22.6223 19.0655 22.5957C17.7796 22.5714 16.6697 23.5117 16.4919 24.7867C16.4756 24.9033 16.4673 25.0225 16.4673 25.1411C16.4673 25.4488 16.7167 25.6981 17.0243 25.6981C17.3319 25.6981 17.5813 25.4488 17.5813 25.1411C17.5813 25.0739 17.5859 25.0063 17.5952 24.9406C17.6952 24.2241 18.3177 23.6982 19.0431 23.7094C19.7896 23.7245 20.4046 24.3196 20.4433 25.0641C20.4639 25.4616 20.3248 25.8389 20.0517 26.1266C19.7784 26.4144 19.4097 26.573 19.0134 26.573C18.7058 26.573 18.4564 26.8223 18.4564 27.13V29.2099C18.4564 29.5176 18.7058 29.7669 19.0134 29.7669C19.3211 29.7669 19.5705 29.5176 19.5705 29.2099V27.6247C20.0589 27.5144 20.5108 27.2611 20.8596 26.8936C21.3451 26.3823 21.5924 25.712 21.5558 25.0064Z" fill="#0090D8"/>
</svg>
