<svg width="36" height="36" viewBox="0 0 36 36" fill="none" xmlns="http://www.w3.org/2000/svg">
<path d="M17.8985 28.3172C17.8186 28.317 17.7396 28.2995 17.6671 28.2658L7.86568 23.5515C7.77615 23.5071 7.70071 23.4387 7.64774 23.354C7.59478 23.2692 7.56637 23.1715 7.56568 23.0715V12.5201C7.5654 12.43 7.58806 12.3412 7.63151 12.2623C7.67497 12.1833 7.7378 12.1167 7.81408 12.0687C7.89037 12.0207 7.97762 11.9929 8.06761 11.9879C8.15761 11.9829 8.2474 12.0008 8.32853 12.0401L18.13 16.7544C18.2195 16.7988 18.2949 16.8672 18.3479 16.9519C18.4009 17.0367 18.4293 17.1345 18.43 17.2344V27.7858C18.43 27.8757 18.4072 27.9642 18.3637 28.0429C18.3202 28.1216 18.2575 28.188 18.1814 28.2358C18.0969 28.2897 17.9987 28.318 17.8985 28.3172ZM8.62853 22.7458L17.3671 26.9544V17.573L8.62853 13.3644V22.7458Z" fill="#0090D8"/>
<path d="M17.8986 17.7614C17.8244 17.7667 17.75 17.7565 17.68 17.7314L7.87856 13.0171C7.78756 12.9748 7.71055 12.9073 7.6566 12.8226C7.60264 12.738 7.57397 12.6397 7.57397 12.5393C7.57397 12.4389 7.60264 12.3406 7.6566 12.256C7.71055 12.1713 7.78756 12.1038 7.87856 12.0614L17.68 7.32572C17.7517 7.29178 17.83 7.27417 17.9093 7.27417C17.9886 7.27417 18.0669 7.29178 18.1386 7.32572L27.94 12.04C28.0301 12.0836 28.1061 12.1518 28.1592 12.2367C28.2123 12.3217 28.2403 12.4199 28.24 12.52C28.24 12.6195 28.2118 12.717 28.1587 12.8012C28.1056 12.8854 28.0298 12.9528 27.94 12.9957L18.1086 17.7314C18.0413 17.7554 17.9699 17.7656 17.8986 17.7614ZM9.32713 12.5157L17.8986 16.6429L26.47 12.5243L17.8986 8.39286L9.32713 12.5157Z" fill="#0090D8"/>
<path d="M17.8986 28.3171C17.7984 28.3179 17.7002 28.2896 17.6158 28.2357C17.5396 28.1878 17.4769 28.1214 17.4334 28.0427C17.39 27.964 17.3672 27.8756 17.3672 27.7857V17.2385C17.3669 17.1384 17.3949 17.0402 17.448 16.9553C17.501 16.8703 17.577 16.8021 17.6672 16.7585L27.4686 12.0443C27.5498 12.005 27.6395 11.987 27.7295 11.992C27.8195 11.997 27.9068 12.0248 27.9831 12.0728C28.0594 12.1208 28.1222 12.1875 28.1656 12.2664C28.2091 12.3454 28.2317 12.4341 28.2315 12.5242V23.0671C28.2318 23.1673 28.2038 23.2654 28.1507 23.3504C28.0976 23.4353 28.0216 23.5035 27.9315 23.5471L18.1086 28.2657C18.0429 28.297 17.9714 28.3145 17.8986 28.3171ZM18.43 17.5728V26.9414L27.1686 22.7328V13.3643L18.43 17.5728Z" fill="#0090D8"/>
<path d="M12.9958 15.4045C12.8764 15.4033 12.761 15.3619 12.668 15.2871C12.575 15.2123 12.5099 15.1084 12.4832 14.9921C12.4565 14.8758 12.4697 14.7539 12.5207 14.646C12.5717 14.5381 12.6575 14.4505 12.7643 14.3973L22.57 9.68304C22.6968 9.62261 22.8424 9.61484 22.9749 9.66142C23.1074 9.708 23.2161 9.80514 23.2772 9.93161C23.3077 9.9943 23.3255 10.0624 23.3295 10.132C23.3335 10.2016 23.3236 10.2713 23.3005 10.3371C23.2774 10.4028 23.2414 10.4634 23.1948 10.5151C23.1481 10.5669 23.0916 10.6089 23.0286 10.6388L13.2272 15.353C13.1545 15.3863 13.0757 15.4039 12.9958 15.4045Z" fill="#0090D8"/>
<path d="M14.3112 20.033C14.2312 20.0333 14.1521 20.0158 14.0798 19.9816L11.187 18.5887C11.1239 18.5589 11.0675 18.5169 11.0208 18.4651C10.9741 18.4133 10.9382 18.3528 10.9151 18.287C10.892 18.2212 10.8821 18.1516 10.8861 18.082C10.8901 18.0124 10.9079 17.9442 10.9384 17.8816C10.9995 17.7551 11.1082 17.658 11.2407 17.6114C11.3732 17.5648 11.5187 17.5726 11.6455 17.633L14.5384 19.0173C14.6449 19.0703 14.7306 19.1575 14.7817 19.265C14.8327 19.3724 14.8463 19.4939 14.8201 19.61C14.7939 19.7261 14.7295 19.83 14.6373 19.9051C14.545 19.9803 14.4302 20.0223 14.3112 20.0244V20.033Z" fill="#0090D8"/>
<path d="M1.79706 24.9016C1.69334 24.9032 1.59141 24.8744 1.50383 24.8189C1.41625 24.7633 1.34686 24.6833 1.30421 24.5887C-0.3044 20.6106 -0.429062 16.1867 0.952967 12.1243C2.335 8.06189 5.13158 4.63181 8.83241 2.45996C12.5332 0.288104 16.8916 -0.480731 21.1122 0.293745C25.3327 1.06822 29.1342 3.33438 31.8228 6.67869C31.8726 6.73193 31.911 6.79485 31.9355 6.86355C31.96 6.93226 31.9701 7.00526 31.9651 7.07803C31.9602 7.1508 31.9403 7.22177 31.9067 7.28653C31.8732 7.35128 31.8266 7.40843 31.77 7.45442C31.7134 7.50042 31.6479 7.53427 31.5777 7.55386C31.5074 7.57346 31.4339 7.57838 31.3617 7.56833C31.2894 7.55828 31.22 7.53347 31.1578 7.49543C31.0956 7.4574 31.0418 7.40696 30.9999 7.34726C28.4708 4.21108 24.9 2.08682 20.937 1.36084C16.974 0.634852 12.8821 1.35536 9.4054 3.39133C5.92874 5.4273 3.2983 8.64347 1.99248 12.4549C0.686656 16.2664 0.792202 20.4199 2.28992 24.1601C2.32211 24.2407 2.33408 24.3279 2.32478 24.4142C2.31548 24.5005 2.2852 24.5832 2.23658 24.655C2.18797 24.7269 2.12249 24.7858 2.04587 24.8265C1.96926 24.8672 1.88383 24.8886 1.79706 24.8887V24.9016Z" fill="#0090D8"/>
<path d="M17.9198 35.77C15.2439 35.7764 12.6008 35.1816 10.1855 34.0296C7.77028 32.8776 5.64464 31.1978 3.96554 29.1143C3.87688 29.0006 3.83701 28.8564 3.85469 28.7133C3.87237 28.5703 3.94616 28.4401 4.05983 28.3514C4.17349 28.2628 4.31772 28.2229 4.46078 28.2406C4.60385 28.2583 4.73403 28.3321 4.82269 28.4457C7.36731 31.5782 10.9533 33.6914 14.9264 34.3998C18.8996 35.1082 22.995 34.3646 26.4654 32.3046C29.9358 30.2446 32.55 27.0055 33.8308 23.1784C35.1117 19.3512 34.974 15.1912 33.4427 11.4572C33.4139 11.3924 33.3984 11.3225 33.397 11.2516C33.3956 11.1807 33.4085 11.1103 33.4348 11.0444C33.461 10.9786 33.5002 10.9186 33.55 10.8682C33.5998 10.8177 33.6592 10.7777 33.7247 10.7505C33.7902 10.7234 33.8605 10.7096 33.9314 10.71C34.0023 10.7104 34.0724 10.725 34.1375 10.7529C34.2027 10.7808 34.2616 10.8214 34.3109 10.8725C34.3601 10.9235 34.3986 10.9839 34.4241 11.05C35.8842 14.6237 36.1567 18.5722 35.2014 22.3126C34.246 26.053 32.1134 29.3871 29.1184 31.8229C25.9476 34.382 21.9945 35.7753 17.9198 35.77Z" fill="#0090D8"/>
<path d="M31.4542 7.58308H31.3942L26.4442 7.04737C26.3112 7.02396 26.1922 6.95086 26.1112 6.84289C26.0302 6.73492 25.9933 6.60017 26.0081 6.46601C26.0228 6.33184 26.088 6.2083 26.1905 6.12047C26.293 6.03264 26.425 5.98709 26.5599 5.99308L30.9656 6.46879L31.4585 2.04594C31.4617 1.97332 31.4798 1.90213 31.5116 1.83678C31.5434 1.77143 31.5884 1.7133 31.6435 1.666C31.6987 1.61869 31.7631 1.58322 31.8325 1.56176C31.902 1.54031 31.9751 1.53333 32.0473 1.54126C32.1196 1.54919 32.1895 1.57186 32.2526 1.60787C32.3158 1.64388 32.3709 1.69246 32.4145 1.75061C32.4581 1.80876 32.4893 1.87524 32.5062 1.94594C32.5231 2.01664 32.5254 2.09006 32.5127 2.16165L31.9813 7.11165C31.9654 7.25167 31.8945 7.37962 31.7842 7.46737C31.6909 7.54298 31.5743 7.58388 31.4542 7.58308Z" fill="#0090D8"/>
<path d="M3.81573 34.2187H3.75573C3.61607 34.2036 3.48807 34.1338 3.39973 34.0245C3.31139 33.9153 3.26989 33.7756 3.2843 33.6358L3.82001 28.6858C3.82668 28.6166 3.84719 28.5495 3.88032 28.4884C3.91345 28.4273 3.95852 28.3735 4.01287 28.3301C4.1226 28.2418 4.26271 28.2002 4.40287 28.2144L9.35287 28.7458C9.48517 28.7694 9.60362 28.8423 9.68435 28.9497C9.76509 29.0572 9.80213 29.1912 9.788 29.3249C9.77388 29.4585 9.70964 29.5818 9.60823 29.67C9.50681 29.7582 9.37576 29.8047 9.24144 29.8001L4.82287 29.3244L4.33859 33.7473C4.32485 33.8765 4.26389 33.996 4.16739 34.0831C4.07089 34.1701 3.94566 34.2184 3.81573 34.2187Z" fill="#0090D8"/>
</svg>
