<svg width="38" height="38" viewBox="0 0 38 38" fill="none" xmlns="http://www.w3.org/2000/svg">
<path d="M6.26862 30.1367L6.3742 30.2573L6.48754 30.144L12.4002 24.2313L12.4441 24.1874V24.1252V21.7941C12.4441 21.7042 12.4566 21.6147 12.4813 21.5283C12.4813 21.5283 12.4813 21.5283 12.4813 21.5283L13.599 17.6165C13.6684 17.3736 13.83 17.1675 14.0493 17.0422C15.5022 16.2119 17.1576 15.797 19 15.797C19.5621 15.797 20.1066 15.8357 20.6332 15.9128L20.7077 15.9238L20.761 15.8705L30.144 6.48754L30.2574 6.3742L30.1368 6.26862C27.1615 3.66397 23.2649 2.08532 19 2.08532C9.65829 2.08532 2.08532 9.65829 2.08532 19C2.08532 23.2649 3.66397 27.1615 6.26862 30.1367ZM31.7314 7.86323L31.6258 7.74263L31.5125 7.85597L23.0152 16.3532L22.8593 16.5091L23.0616 16.5969C23.3657 16.7289 23.6621 16.8773 23.9506 17.0422L24.0251 16.912L23.9506 17.0422C24.2099 17.1904 24.3862 17.45 24.4285 17.7455L24.9872 21.6573L24.9873 21.6574C24.9937 21.7025 24.9969 21.7483 24.9969 21.7942V26.8236C24.9969 27.3581 24.5637 27.7913 24.0293 27.7913C23.4949 27.7913 23.0616 27.3581 23.0616 26.8236V21.8737V21.863L23.0601 21.8525L22.5934 18.5858L22.582 18.506L22.5092 18.4715C22.1608 18.3061 21.7978 18.1685 21.4199 18.0586L21.3347 18.0338L21.2719 18.0965L20.0114 19.357L19.9675 19.4009V19.4631V24.9017V24.9347L19.9813 24.9646L23.2314 32.0064C23.29 32.1335 23.3204 32.2718 23.3204 32.4118V35.1621V35.3591L23.5103 35.3067C30.6622 33.3328 35.9145 26.78 35.9145 19.0001C35.9147 14.7351 34.336 10.8385 31.7314 7.86323ZM16.6147 35.617V35.7483L16.7449 35.7657C17.4827 35.864 18.2354 35.9147 19 35.9147C19.7646 35.9147 20.5173 35.8639 21.2551 35.7657L21.3853 35.7483V35.617V32.6572V32.6243L21.3715 32.5944L19.1362 27.7513L19 27.4562L18.8638 27.7513L16.6285 32.5944L16.6147 32.6243V32.6573V35.617ZM14.4895 35.3066L14.6794 35.359V35.162V32.4118C14.6794 32.2718 14.7098 32.1334 14.7685 32.0063L14.6323 31.9435L14.7685 32.0063L18.0185 24.9645L18.0323 24.9346V24.9017V21.6983V21.3362L17.7763 21.5922L14.4234 24.9451L14.3794 24.9891V25.0512V26.8235C14.3794 27.358 13.9462 27.7912 13.4118 27.7912C12.9971 27.7912 12.643 27.5303 12.5053 27.1631L12.4235 26.9449L12.2588 27.1097L7.85597 31.5125L7.74263 31.6258L7.86323 31.7314C9.74875 33.3821 12.0044 34.6207 14.4895 35.3066ZM18.6318 17.9998L18.9064 17.7251L18.5185 17.7439C17.3727 17.7992 16.3381 18.0551 15.4075 18.5114L15.3477 18.5408L15.3293 18.6049L14.4095 21.8245L14.2505 22.3811L14.6598 21.9718L18.6318 17.9998ZM19 37.85C8.58943 37.85 0.15 29.4106 0.15 19C0.15 8.58943 8.58943 0.15 19 0.15C29.4106 0.15 37.85 8.58943 37.85 19C37.85 29.4106 29.4106 37.85 19 37.85ZM19 13.8206C16.3052 13.8206 14.1206 11.636 14.1206 8.94113C14.1206 6.24627 16.3052 4.06177 19 4.06177C21.6948 4.06177 23.8794 6.24634 23.8794 8.94121C23.8794 11.6361 21.6948 13.8206 19 13.8206ZM19 11.8853C20.626 11.8853 21.9441 10.5672 21.9441 8.94121C21.9441 7.31521 20.626 5.99709 19 5.99709C17.374 5.99709 16.0559 7.31521 16.0559 8.94121C16.0559 10.5672 17.374 11.8853 19 11.8853Z" fill="#0090D8" stroke="white" stroke-width="0.3"/>
</svg>
